<svg width="23" height="23" viewBox="0 0 23 23" fill="none" xmlns="http://www.w3.org/2000/svg">
    <path
        d="M6.17918 7.63736C6.48043 4.92614 8.7721 2.875 11.5 2.875V2.875C14.2279 2.875 16.5196 4.92614 16.8208 7.63736L17.0621 9.80915C17.1859 10.9233 17.5486 11.9976 18.1253 12.9588L18.6792 13.8821C19.1479 14.6631 19.3822 15.0537 19.3553 15.375C19.331 15.6664 19.1803 15.9325 18.943 16.1033C18.6813 16.2917 18.2258 16.2917 17.3149 16.2917H5.68506C4.77416 16.2917 4.31872 16.2917 4.05699 16.1033C3.8197 15.9325 3.66905 15.6664 3.64467 15.375C3.61779 15.0537 3.85211 14.6631 4.32076 13.8821L4.87471 12.9588C5.45145 11.9976 5.81408 10.9233 5.93787 9.80915L6.17918 7.63736Z"
        stroke="#33363F" stroke-width="2" />
    <path
        d="M7.66665 16.2917C7.66665 16.7951 7.7658 17.2935 7.95844 17.7586C8.15108 18.2237 8.43345 18.6463 8.7894 19.0022C9.14536 19.3582 9.56795 19.6406 10.033 19.8332C10.4981 20.0258 10.9966 20.125 11.5 20.125C12.0034 20.125 12.5019 20.0258 12.9669 19.8332C13.432 19.6406 13.8546 19.3582 14.2106 19.0022C14.5665 18.6463 14.8489 18.2237 15.0415 17.7586C15.2342 17.2935 15.3333 16.7951 15.3333 16.2917"
        stroke="#33363F" stroke-width="2" stroke-linecap="round" />
</svg>